# xmcd CD Database Entry
#
# Track frame offsets:
# 150
# 15346
# 27664
# 49545
# 64753
# 75629
# 98619
# 113744
# 129655
# 153356
# 175683
#
# Disc length: 2595 seconds
#
# Revision: 1
# Processed by: cddbd v1.4PL0 Copyright (c) Steve Scherf et al.
# Submitted via: tcd 2.0b
#
DISCID=7c0a210b
DTITLE=Kerozin
DYEAR=1900
DGENRE=
TTITLE0=1. sáv
TTITLE1=2. sáv
TTITLE2=3. sáv
TTITLE3=4. sáv
TTITLE4=5. sáv
TTITLE5=6. sáv
TTITLE6=7. sáv
TTITLE7=8. sáv
TTITLE8=9. sáv
TTITLE9=10. sáv
TTITLE10=11. sáv
EXTD=Durva Didi
EXTT0=
EXTT1=
EXTT2=
EXTT3=
EXTT4=
EXTT5=
EXTT6=
EXTT7=
EXTT8=
EXTT9=
EXTT10=
PLAYORDER=
